<svg width="436" height="53" viewBox="0 0 436 53" fill="none" xmlns="http://www.w3.org/2000/svg">
<path d="M0 20C0 8.95431 8.95431 0 20 0H416C427.046 0 436 8.95431 436 20V33C436 44.0457 427.046 53 416 53H20C8.9543 53 0 44.0457 0 33V20Z" fill="#A48356" fill-opacity="0.57"/>
<path d="M20 1H416C426.493 1 435 9.50659 435 20V33C435 43.4934 426.493 52 416 52H20C9.50659 52 1 43.4934 1 33V20C1 9.50659 9.50659 1 20 1Z" stroke="#523122" stroke-opacity="0.3" stroke-width="2"/>
<path d="M23.2464 37V13.9H25.2594L41.1984 33.964H40.1424V13.9H42.5514V37H40.5384L24.6324 16.936H25.6884V37H23.2464ZM56.6581 37.165C54.9861 37.165 53.4791 36.791 52.1371 36.043C50.8171 35.273 49.7721 34.228 49.0021 32.908C48.2321 31.566 47.8471 30.037 47.8471 28.321C47.8471 26.583 48.2321 25.054 49.0021 23.734C49.7721 22.414 50.8171 21.38 52.1371 20.632C53.4571 19.884 54.9641 19.51 56.6581 19.51C58.3741 19.51 59.8921 19.884 61.2121 20.632C62.5541 21.38 63.5991 22.414 64.3471 23.734C65.1171 25.054 65.5021 26.583 65.5021 28.321C65.5021 30.037 65.1171 31.566 64.3471 32.908C63.5991 34.228 62.5541 35.273 61.2121 36.043C59.8701 36.791 58.3521 37.165 56.6581 37.165ZM56.6581 35.086C57.9121 35.086 59.0231 34.811 59.9911 34.261C60.9591 33.689 61.7181 32.897 62.2681 31.885C62.8401 30.851 63.1261 29.663 63.1261 28.321C63.1261 26.957 62.8401 25.769 62.2681 24.757C61.7181 23.745 60.9591 22.964 59.9911 22.414C59.0231 21.842 57.9231 21.556 56.6911 21.556C55.4591 21.556 54.3591 21.842 53.3911 22.414C52.4231 22.964 51.6531 23.745 51.0811 24.757C50.5091 25.769 50.2231 26.957 50.2231 28.321C50.2231 29.663 50.5091 30.851 51.0811 31.885C51.6531 32.897 52.4231 33.689 53.3911 34.261C54.3591 34.811 55.4481 35.086 56.6581 35.086ZM86.1163 37.165C84.4003 37.165 82.8603 36.791 81.4963 36.043C80.1543 35.273 79.0983 34.228 78.3283 32.908C77.5583 31.566 77.1733 30.037 77.1733 28.321C77.1733 26.583 77.5583 25.054 78.3283 23.734C79.0983 22.414 80.1543 21.38 81.4963 20.632C82.8603 19.884 84.4003 19.51 86.1163 19.51C87.5903 19.51 88.9213 19.796 90.1093 20.368C91.2973 20.94 92.2323 21.798 92.9143 22.942L91.1653 24.13C90.5713 23.25 89.8343 22.601 88.9543 22.183C88.0743 21.765 87.1173 21.556 86.0833 21.556C84.8513 21.556 83.7403 21.842 82.7503 22.414C81.7603 22.964 80.9793 23.745 80.4073 24.757C79.8353 25.769 79.5493 26.957 79.5493 28.321C79.5493 29.685 79.8353 30.873 80.4073 31.885C80.9793 32.897 81.7603 33.689 82.7503 34.261C83.7403 34.811 84.8513 35.086 86.0833 35.086C87.1173 35.086 88.0743 34.877 88.9543 34.459C89.8343 34.041 90.5713 33.403 91.1653 32.545L92.9143 33.733C92.2323 34.855 91.2973 35.713 90.1093 36.307C88.9213 36.879 87.5903 37.165 86.1163 37.165ZM104.289 37.165C102.617 37.165 101.11 36.791 99.768 36.043C98.448 35.273 97.403 34.228 96.633 32.908C95.863 31.566 95.478 30.037 95.478 28.321C95.478 26.583 95.863 25.054 96.633 23.734C97.403 22.414 98.448 21.38 99.768 20.632C101.088 19.884 102.595 19.51 104.289 19.51C106.005 19.51 107.523 19.884 108.843 20.632C110.185 21.38 111.23 22.414 111.978 23.734C112.748 25.054 113.133 26.583 113.133 28.321C113.133 30.037 112.748 31.566 111.978 32.908C111.23 34.228 110.185 35.273 108.843 36.043C107.501 36.791 105.983 37.165 104.289 37.165ZM104.289 35.086C105.543 35.086 106.654 34.811 107.622 34.261C108.59 33.689 109.349 32.897 109.899 31.885C110.471 30.851 110.757 29.663 110.757 28.321C110.757 26.957 110.471 25.769 109.899 24.757C109.349 23.745 108.59 22.964 107.622 22.414C106.654 21.842 105.554 21.556 104.322 21.556C103.09 21.556 101.99 21.842 101.022 22.414C100.054 22.964 99.284 23.745 98.712 24.757C98.14 25.769 97.854 26.957 97.854 28.321C97.854 29.663 98.14 30.851 98.712 31.885C99.284 32.897 100.054 33.689 101.022 34.261C101.99 34.811 103.079 35.086 104.289 35.086ZM139.564 19.51C140.972 19.51 142.193 19.785 143.227 20.335C144.283 20.863 145.097 21.677 145.669 22.777C146.263 23.877 146.56 25.263 146.56 26.935V37H144.217V27.166C144.217 25.34 143.777 23.965 142.897 23.041C142.039 22.095 140.818 21.622 139.234 21.622C138.046 21.622 137.012 21.875 136.132 22.381C135.274 22.865 134.603 23.58 134.119 24.526C133.657 25.45 133.426 26.572 133.426 27.892V37H131.083V27.166C131.083 25.34 130.643 23.965 129.763 23.041C128.883 22.095 127.651 21.622 126.067 21.622C124.901 21.622 123.878 21.875 122.998 22.381C122.118 22.865 121.436 23.58 120.952 24.526C120.49 25.45 120.259 26.572 120.259 27.892V37H117.916V19.675H120.16V24.361L119.797 23.536C120.325 22.282 121.172 21.303 122.338 20.599C123.526 19.873 124.923 19.51 126.529 19.51C128.223 19.51 129.664 19.939 130.852 20.797C132.04 21.633 132.81 22.898 133.162 24.592L132.238 24.229C132.744 22.821 133.635 21.688 134.911 20.83C136.209 19.95 137.76 19.51 139.564 19.51ZM161.857 37.165C160.361 37.165 159.008 36.824 157.798 36.142C156.588 35.438 155.62 34.437 154.894 33.139C154.19 31.819 153.838 30.213 153.838 28.321C153.838 26.429 154.19 24.834 154.894 23.536C155.598 22.216 156.555 21.215 157.765 20.533C158.975 19.851 160.339 19.51 161.857 19.51C163.507 19.51 164.981 19.884 166.279 20.632C167.599 21.358 168.633 22.392 169.381 23.734C170.129 25.054 170.503 26.583 170.503 28.321C170.503 30.081 170.129 31.621 169.381 32.941C168.633 34.261 167.599 35.295 166.279 36.043C164.981 36.791 163.507 37.165 161.857 37.165ZM152.914 43.402V19.675H155.158V24.889L154.927 28.354L155.257 31.852V43.402H152.914ZM161.692 35.086C162.924 35.086 164.024 34.811 164.992 34.261C165.96 33.689 166.73 32.897 167.302 31.885C167.874 30.851 168.16 29.663 168.16 28.321C168.16 26.979 167.874 25.802 167.302 24.79C166.73 23.778 165.96 22.986 164.992 22.414C164.024 21.842 162.924 21.556 161.692 21.556C160.46 21.556 159.349 21.842 158.359 22.414C157.391 22.986 156.621 23.778 156.049 24.79C155.499 25.802 155.224 26.979 155.224 28.321C155.224 29.663 155.499 30.851 156.049 31.885C156.621 32.897 157.391 33.689 158.359 34.261C159.349 34.811 160.46 35.086 161.692 35.086ZM175.28 37V12.514H177.623V37H175.28ZM191.501 37.165C189.697 37.165 188.113 36.791 186.749 36.043C185.385 35.273 184.318 34.228 183.548 32.908C182.778 31.566 182.393 30.037 182.393 28.321C182.393 26.605 182.756 25.087 183.482 23.767C184.23 22.447 185.242 21.413 186.518 20.665C187.816 19.895 189.268 19.51 190.874 19.51C192.502 19.51 193.943 19.884 195.197 20.632C196.473 21.358 197.474 22.392 198.2 23.734C198.926 25.054 199.289 26.583 199.289 28.321C199.289 28.431 199.278 28.552 199.256 28.684C199.256 28.794 199.256 28.915 199.256 29.047H184.175V27.298H198.002L197.078 27.991C197.078 26.737 196.803 25.626 196.253 24.658C195.725 23.668 194.999 22.898 194.075 22.348C193.151 21.798 192.084 21.523 190.874 21.523C189.686 21.523 188.619 21.798 187.673 22.348C186.727 22.898 185.99 23.668 185.462 24.658C184.934 25.648 184.67 26.781 184.67 28.057V28.42C184.67 29.74 184.956 30.906 185.528 31.918C186.122 32.908 186.936 33.689 187.97 34.261C189.026 34.811 190.225 35.086 191.567 35.086C192.623 35.086 193.602 34.899 194.504 34.525C195.428 34.151 196.22 33.579 196.88 32.809L198.2 34.327C197.43 35.251 196.462 35.955 195.296 36.439C194.152 36.923 192.887 37.165 191.501 37.165ZM209.536 37.165C207.908 37.165 206.654 36.725 205.774 35.845C204.894 34.965 204.454 33.722 204.454 32.116V15.847H206.797V31.984C206.797 32.996 207.05 33.777 207.556 34.327C208.084 34.877 208.832 35.152 209.8 35.152C210.834 35.152 211.692 34.855 212.374 34.261L213.199 35.944C212.737 36.362 212.176 36.67 211.516 36.868C210.878 37.066 210.218 37.165 209.536 37.165ZM201.352 21.622V19.675H212.077V21.622H201.352ZM224.211 37.165C222.407 37.165 220.823 36.791 219.459 36.043C218.095 35.273 217.028 34.228 216.258 32.908C215.488 31.566 215.103 30.037 215.103 28.321C215.103 26.605 215.466 25.087 216.192 23.767C216.94 22.447 217.952 21.413 219.228 20.665C220.526 19.895 221.978 19.51 223.584 19.51C225.212 19.51 226.653 19.884 227.907 20.632C229.183 21.358 230.184 22.392 230.91 23.734C231.636 25.054 231.999 26.583 231.999 28.321C231.999 28.431 231.988 28.552 231.966 28.684C231.966 28.794 231.966 28.915 231.966 29.047H216.885V27.298H230.712L229.788 27.991C229.788 26.737 229.513 25.626 228.963 24.658C228.435 23.668 227.709 22.898 226.785 22.348C225.861 21.798 224.794 21.523 223.584 21.523C222.396 21.523 221.329 21.798 220.383 22.348C219.437 22.898 218.7 23.668 218.172 24.658C217.644 25.648 217.38 26.781 217.38 28.057V28.42C217.38 29.74 217.666 30.906 218.238 31.918C218.832 32.908 219.646 33.689 220.68 34.261C221.736 34.811 222.935 35.086 224.277 35.086C225.333 35.086 226.312 34.899 227.214 34.525C228.138 34.151 228.93 33.579 229.59 32.809L230.91 34.327C230.14 35.251 229.172 35.955 228.006 36.439C226.862 36.923 225.597 37.165 224.211 37.165ZM243.665 37.165C242.015 37.165 240.53 36.791 239.21 36.043C237.912 35.295 236.889 34.261 236.141 32.941C235.393 31.599 235.019 30.059 235.019 28.321C235.019 26.561 235.393 25.021 236.141 23.701C236.889 22.381 237.912 21.358 239.21 20.632C240.53 19.884 242.015 19.51 243.665 19.51C245.183 19.51 246.536 19.851 247.724 20.533C248.934 21.215 249.891 22.216 250.595 23.536C251.321 24.834 251.684 26.429 251.684 28.321C251.684 30.191 251.332 31.786 250.628 33.106C249.924 34.426 248.967 35.438 247.757 36.142C246.569 36.824 245.205 37.165 243.665 37.165ZM243.83 35.086C245.062 35.086 246.162 34.811 247.13 34.261C248.12 33.689 248.89 32.897 249.44 31.885C250.012 30.851 250.298 29.663 250.298 28.321C250.298 26.957 250.012 25.769 249.44 24.757C248.89 23.745 248.12 22.964 247.13 22.414C246.162 21.842 245.062 21.556 243.83 21.556C242.62 21.556 241.531 21.842 240.563 22.414C239.595 22.964 238.825 23.745 238.253 24.757C237.681 25.769 237.395 26.957 237.395 28.321C237.395 29.663 237.681 30.851 238.253 31.885C238.825 32.897 239.595 33.689 240.563 34.261C241.531 34.811 242.62 35.086 243.83 35.086ZM250.364 37V31.786L250.595 28.288L250.265 24.79V12.514H252.608V37H250.364ZM273.248 37.165C271.62 37.165 270.366 36.725 269.486 35.845C268.606 34.965 268.166 33.722 268.166 32.116V15.847H270.509V31.984C270.509 32.996 270.762 33.777 271.268 34.327C271.796 34.877 272.544 35.152 273.512 35.152C274.546 35.152 275.404 34.855 276.086 34.261L276.911 35.944C276.449 36.362 275.888 36.67 275.228 36.868C274.59 37.066 273.93 37.165 273.248 37.165ZM265.064 21.622V19.675H275.789V21.622H265.064ZM287.626 37.165C285.954 37.165 284.447 36.791 283.105 36.043C281.785 35.273 280.74 34.228 279.97 32.908C279.2 31.566 278.815 30.037 278.815 28.321C278.815 26.583 279.2 25.054 279.97 23.734C280.74 22.414 281.785 21.38 283.105 20.632C284.425 19.884 285.932 19.51 287.626 19.51C289.342 19.51 290.86 19.884 292.18 20.632C293.522 21.38 294.567 22.414 295.315 23.734C296.085 25.054 296.47 26.583 296.47 28.321C296.47 30.037 296.085 31.566 295.315 32.908C294.567 34.228 293.522 35.273 292.18 36.043C290.838 36.791 289.32 37.165 287.626 37.165ZM287.626 35.086C288.88 35.086 289.991 34.811 290.959 34.261C291.927 33.689 292.686 32.897 293.236 31.885C293.808 30.851 294.094 29.663 294.094 28.321C294.094 26.957 293.808 25.769 293.236 24.757C292.686 23.745 291.927 22.964 290.959 22.414C289.991 21.842 288.891 21.556 287.659 21.556C286.427 21.556 285.327 21.842 284.359 22.414C283.391 22.964 282.621 23.745 282.049 24.757C281.477 25.769 281.191 26.957 281.191 28.321C281.191 29.663 281.477 30.851 282.049 31.885C282.621 32.897 283.391 33.689 284.359 34.261C285.327 34.811 286.416 35.086 287.626 35.086ZM308.15 37.165C306.5 37.165 305.015 36.791 303.695 36.043C302.397 35.295 301.374 34.261 300.626 32.941C299.878 31.599 299.504 30.059 299.504 28.321C299.504 26.561 299.878 25.021 300.626 23.701C301.374 22.381 302.397 21.358 303.695 20.632C305.015 19.884 306.5 19.51 308.15 19.51C309.668 19.51 311.021 19.851 312.209 20.533C313.419 21.215 314.376 22.216 315.08 23.536C315.806 24.834 316.169 26.429 316.169 28.321C316.169 30.191 315.817 31.786 315.113 33.106C314.409 34.426 313.452 35.438 312.242 36.142C311.054 36.824 309.69 37.165 308.15 37.165ZM308.315 35.086C309.547 35.086 310.647 34.811 311.615 34.261C312.605 33.689 313.375 32.897 313.925 31.885C314.497 30.851 314.783 29.663 314.783 28.321C314.783 26.957 314.497 25.769 313.925 24.757C313.375 23.745 312.605 22.964 311.615 22.414C310.647 21.842 309.547 21.556 308.315 21.556C307.105 21.556 306.016 21.842 305.048 22.414C304.08 22.964 303.31 23.745 302.738 24.757C302.166 25.769 301.88 26.957 301.88 28.321C301.88 29.663 302.166 30.851 302.738 31.885C303.31 32.897 304.08 33.689 305.048 34.261C306.016 34.811 307.105 35.086 308.315 35.086ZM314.849 37V31.786L315.08 28.288L314.75 24.79V12.514H317.093V37H314.849ZM330.681 37.165C329.009 37.165 327.502 36.791 326.16 36.043C324.84 35.273 323.795 34.228 323.025 32.908C322.255 31.566 321.87 30.037 321.87 28.321C321.87 26.583 322.255 25.054 323.025 23.734C323.795 22.414 324.84 21.38 326.16 20.632C327.48 19.884 328.987 19.51 330.681 19.51C332.397 19.51 333.915 19.884 335.235 20.632C336.577 21.38 337.622 22.414 338.37 23.734C339.14 25.054 339.525 26.583 339.525 28.321C339.525 30.037 339.14 31.566 338.37 32.908C337.622 34.228 336.577 35.273 335.235 36.043C333.893 36.791 332.375 37.165 330.681 37.165ZM330.681 35.086C331.935 35.086 333.046 34.811 334.014 34.261C334.982 33.689 335.741 32.897 336.291 31.885C336.863 30.851 337.149 29.663 337.149 28.321C337.149 26.957 336.863 25.769 336.291 24.757C335.741 23.745 334.982 22.964 334.014 22.414C333.046 21.842 331.946 21.556 330.714 21.556C329.482 21.556 328.382 21.842 327.414 22.414C326.446 22.964 325.676 23.745 325.104 24.757C324.532 25.769 324.246 26.957 324.246 28.321C324.246 29.663 324.532 30.851 325.104 31.885C325.676 32.897 326.446 33.689 327.414 34.261C328.382 34.811 329.471 35.086 330.681 35.086ZM348.961 37.165C347.531 37.165 346.178 36.967 344.902 36.571C343.626 36.153 342.625 35.636 341.899 35.02L342.955 33.172C343.659 33.7 344.561 34.162 345.661 34.558C346.761 34.932 347.916 35.119 349.126 35.119C350.776 35.119 351.964 34.866 352.69 34.36C353.416 33.832 353.779 33.139 353.779 32.281C353.779 31.643 353.57 31.148 353.152 30.796C352.756 30.422 352.228 30.147 351.568 29.971C350.908 29.773 350.171 29.608 349.357 29.476C348.543 29.344 347.729 29.19 346.915 29.014C346.123 28.838 345.397 28.585 344.737 28.255C344.077 27.903 343.538 27.43 343.12 26.836C342.724 26.242 342.526 25.45 342.526 24.46C342.526 23.514 342.79 22.667 343.318 21.919C343.846 21.171 344.616 20.588 345.628 20.17C346.662 19.73 347.916 19.51 349.39 19.51C350.512 19.51 351.634 19.664 352.756 19.972C353.878 20.258 354.802 20.643 355.528 21.127L354.505 23.008C353.735 22.48 352.91 22.106 352.03 21.886C351.15 21.644 350.27 21.523 349.39 21.523C347.828 21.523 346.673 21.798 345.925 22.348C345.199 22.876 344.836 23.558 344.836 24.394C344.836 25.054 345.034 25.571 345.43 25.945C345.848 26.319 346.387 26.616 347.047 26.836C347.729 27.034 348.466 27.199 349.258 27.331C350.072 27.463 350.875 27.628 351.667 27.826C352.481 28.002 353.218 28.255 353.878 28.585C354.56 28.893 355.099 29.344 355.495 29.938C355.913 30.51 356.122 31.269 356.122 32.215C356.122 33.227 355.836 34.107 355.264 34.855C354.714 35.581 353.9 36.153 352.822 36.571C351.766 36.967 350.479 37.165 348.961 37.165ZM369.19 43.567C368.376 43.567 367.595 43.435 366.847 43.171C366.121 42.907 365.494 42.511 364.966 41.983L366.055 40.234C366.495 40.652 366.968 40.971 367.474 41.191C368.002 41.433 368.585 41.554 369.223 41.554C369.993 41.554 370.653 41.334 371.203 40.894C371.775 40.476 372.314 39.728 372.82 38.65L373.942 36.109L374.206 35.746L381.334 19.675H383.644L374.965 39.079C374.481 40.201 373.942 41.092 373.348 41.752C372.776 42.412 372.149 42.874 371.467 43.138C370.785 43.424 370.026 43.567 369.19 43.567ZM373.81 37.495L365.824 19.675H368.266L375.328 35.581L373.81 37.495ZM393.819 37.165C392.015 37.165 390.431 36.791 389.067 36.043C387.703 35.273 386.636 34.228 385.866 32.908C385.096 31.566 384.711 30.037 384.711 28.321C384.711 26.605 385.074 25.087 385.8 23.767C386.548 22.447 387.56 21.413 388.836 20.665C390.134 19.895 391.586 19.51 393.192 19.51C394.82 19.51 396.261 19.884 397.515 20.632C398.791 21.358 399.792 22.392 400.518 23.734C401.244 25.054 401.607 26.583 401.607 28.321C401.607 28.431 401.596 28.552 401.574 28.684C401.574 28.794 401.574 28.915 401.574 29.047H386.493V27.298H400.32L399.396 27.991C399.396 26.737 399.121 25.626 398.571 24.658C398.043 23.668 397.317 22.898 396.393 22.348C395.469 21.798 394.402 21.523 393.192 21.523C392.004 21.523 390.937 21.798 389.991 22.348C389.045 22.898 388.308 23.668 387.78 24.658C387.252 25.648 386.988 26.781 386.988 28.057V28.42C386.988 29.74 387.274 30.906 387.846 31.918C388.44 32.908 389.254 33.689 390.288 34.261C391.344 34.811 392.543 35.086 393.885 35.086C394.941 35.086 395.92 34.899 396.822 34.525C397.746 34.151 398.538 33.579 399.198 32.809L400.518 34.327C399.748 35.251 398.78 35.955 397.614 36.439C396.47 36.923 395.205 37.165 393.819 37.165ZM411.854 37.165C410.226 37.165 408.972 36.725 408.092 35.845C407.212 34.965 406.772 33.722 406.772 32.116V15.847H409.115V31.984C409.115 32.996 409.368 33.777 409.874 34.327C410.402 34.877 411.15 35.152 412.118 35.152C413.152 35.152 414.01 34.855 414.692 34.261L415.517 35.944C415.055 36.362 414.494 36.67 413.834 36.868C413.196 37.066 412.536 37.165 411.854 37.165ZM403.67 21.622V19.675H414.395V21.622H403.67Z" fill="white" fill-opacity="0.6"/>
</svg>
