<svg width="169" height="101" viewBox="0 0 169 101" fill="none" xmlns="http://www.w3.org/2000/svg">
<path d="M0 69.0734C0 74.5963 4.47715 79.0734 10 79.0734H32.6177C35.9674 79.0734 39.0947 80.7506 40.9479 83.541L49.2705 96.0724C53.1162 101.863 61.5506 102.06 65.663 96.456L75.4214 83.1574C77.3053 80.59 80.2993 79.0734 83.4837 79.0734H159C164.523 79.0734 169 74.5963 169 69.0734V9.99999C169 4.47714 164.523 -5.85837e-06 159 -5.85837e-06H10C4.47716 -5.85837e-06 0 4.47715 0 9.99999V69.0734Z" fill="white"/>
<path d="M167.5 69.0734V9.99999C167.5 5.30557 163.694 1.49999 159 1.49999H10C5.30558 1.49999 1.5 5.30557 1.5 9.99999V69.0734C1.5 73.7678 5.30558 77.5734 10 77.5734H32.6177C36.4699 77.5734 40.0662 79.5022 42.1974 82.7111L50.52 95.2425C53.7888 100.164 60.9581 100.332 64.4536 95.5686L74.212 82.27C76.3785 79.3175 79.8216 77.5734 83.4837 77.5734H159C163.694 77.5734 167.5 73.7678 167.5 69.0734Z" stroke="#CC4646" stroke-opacity="0.42" stroke-width="3"/>
</svg>
