<svg width="169" height="108" viewBox="0 0 169 108" fill="none" xmlns="http://www.w3.org/2000/svg">
<path d="M0 69.0734C0 74.5963 4.47715 79.0734 10 79.0734H32.6177C35.9674 79.0734 39.0947 80.7506 40.9479 83.541L49.2705 96.0724C53.1162 101.863 61.5506 102.06 65.663 96.456L75.4214 83.1574C77.3053 80.59 80.2993 79.0734 83.4837 79.0734H159C164.523 79.0734 169 74.5963 169 69.0734V9.99999C169 4.47714 164.523 -7.62939e-06 159 -7.62939e-06H10C4.47716 -7.62939e-06 0 4.47715 0 9.99999V69.0734Z" fill="white"/>
<path d="M1.5 69.0734C1.5 73.7679 5.30558 77.5734 10 77.5734H32.6177C36.4699 77.5734 40.0662 79.5022 42.1974 82.7111L50.52 95.2425C53.7888 100.164 60.9581 100.332 64.4536 95.5686L74.212 82.27C76.3785 79.3175 79.8216 77.5734 83.4837 77.5734H159C163.694 77.5734 167.5 73.7678 167.5 69.0734V9.99999C167.5 5.30557 163.694 1.49999 159 1.49999H10C5.30558 1.49999 1.5 5.30558 1.5 9.99999V69.0734Z" stroke="#CC4646" stroke-opacity="0.42" stroke-width="3"/>
<path d="M27.5297 33V19H29.1697L35.4497 29.58H34.5697L40.7697 19H42.4097L42.4297 33H40.5097L40.4897 22.02H40.9497L35.4297 31.3H34.5097L28.9497 22.02H29.4497V33H27.5297ZM52.9313 33V30.76L52.8313 30.34V26.52C52.8313 25.7067 52.5913 25.08 52.1113 24.64C51.6446 24.1867 50.9379 23.96 49.9913 23.96C49.3646 23.96 48.7513 24.0667 48.1513 24.28C47.5513 24.48 47.0446 24.7533 46.6313 25.1L45.8313 23.66C46.3779 23.22 47.0313 22.8867 47.7913 22.66C48.5646 22.42 49.3713 22.3 50.2113 22.3C51.6646 22.3 52.7846 22.6533 53.5713 23.36C54.3579 24.0667 54.7513 25.1467 54.7513 26.6V33H52.9313ZM49.4513 33.12C48.6646 33.12 47.9713 32.9867 47.3713 32.72C46.7846 32.4533 46.3313 32.0867 46.0113 31.62C45.6913 31.14 45.5313 30.6 45.5313 30C45.5313 29.4267 45.6646 28.9067 45.9313 28.44C46.2113 27.9733 46.6579 27.6 47.2713 27.32C47.8979 27.04 48.7379 26.9 49.7913 26.9H53.1513V28.28H49.8713C48.9113 28.28 48.2646 28.44 47.9313 28.76C47.5979 29.08 47.4313 29.4667 47.4313 29.92C47.4313 30.44 47.6379 30.86 48.0513 31.18C48.4646 31.4867 49.0379 31.64 49.7713 31.64C50.4913 31.64 51.1179 31.48 51.6513 31.16C52.1979 30.84 52.5913 30.3733 52.8313 29.76L53.2113 31.08C52.9579 31.7067 52.5113 32.2067 51.8713 32.58C51.2313 32.94 50.4246 33.12 49.4513 33.12ZM56.7644 33L61.3244 27.08L61.3044 28.06L56.9644 22.4H59.1044L62.4244 26.76H61.6044L64.9244 22.4H67.0244L62.6244 28.1L62.6444 27.08L67.2444 33H65.0644L61.5644 28.36L62.3444 28.48L58.9044 33H56.7644ZM74.7106 33V18.16H76.6306V33H74.7106ZM85.0166 33.12C83.8832 33.12 82.8832 32.8867 82.0166 32.42C81.1632 31.9533 80.4966 31.3133 80.0166 30.5C79.5499 29.6867 79.3166 28.7533 79.3166 27.7C79.3166 26.6467 79.5432 25.7133 79.9966 24.9C80.4632 24.0867 81.0966 23.4533 81.8966 23C82.7099 22.5333 83.6232 22.3 84.6366 22.3C85.6632 22.3 86.5699 22.5267 87.3566 22.98C88.1432 23.4333 88.7566 24.0733 89.1966 24.9C89.6499 25.7133 89.8766 26.6667 89.8766 27.76C89.8766 27.84 89.8699 27.9333 89.8566 28.04C89.8566 28.1467 89.8499 28.2467 89.8366 28.34H80.8166V26.96H88.8366L88.0566 27.44C88.0699 26.76 87.9299 26.1533 87.6366 25.62C87.3432 25.0867 86.9366 24.6733 86.4166 24.38C85.9099 24.0733 85.3166 23.92 84.6366 23.92C83.9699 23.92 83.3766 24.0733 82.8566 24.38C82.3366 24.6733 81.9299 25.0933 81.6366 25.64C81.3432 26.1733 81.1966 26.7867 81.1966 27.48V27.8C81.1966 28.5067 81.3566 29.14 81.6766 29.7C82.0099 30.2467 82.4699 30.6733 83.0566 30.98C83.6432 31.2867 84.3166 31.44 85.0766 31.44C85.7032 31.44 86.2699 31.3333 86.7766 31.12C87.2966 30.9067 87.7499 30.5867 88.1366 30.16L89.1966 31.4C88.7166 31.96 88.1166 32.3867 87.3966 32.68C86.6899 32.9733 85.8966 33.12 85.0166 33.12ZM98.2027 22.3C99.0693 22.3 99.8293 22.4667 100.483 22.8C101.149 23.1333 101.669 23.64 102.043 24.32C102.416 25 102.603 25.86 102.603 26.9V33H100.683V27.12C100.683 26.0933 100.429 25.32 99.9227 24.8C99.4293 24.28 98.7293 24.02 97.8227 24.02C97.1427 24.02 96.5493 24.1533 96.0427 24.42C95.536 24.6867 95.1427 25.08 94.8627 25.6C94.596 26.12 94.4627 26.7667 94.4627 27.54V33H92.5427V22.4H94.3827V25.26L94.0827 24.5C94.4293 23.8067 94.9627 23.2667 95.6827 22.88C96.4027 22.4933 97.2427 22.3 98.2027 22.3ZM110.796 37C109.823 37 108.876 36.86 107.956 36.58C107.049 36.3133 106.309 35.9267 105.736 35.42L106.656 33.94C107.149 34.3667 107.756 34.7 108.476 34.94C109.196 35.1933 109.949 35.32 110.736 35.32C111.989 35.32 112.909 35.0267 113.496 34.44C114.083 33.8533 114.376 32.96 114.376 31.76V29.52L114.576 27.42L114.476 25.3V22.4H116.296V31.56C116.296 33.4267 115.829 34.8 114.896 35.68C113.963 36.56 112.596 37 110.796 37ZM110.556 32.56C109.529 32.56 108.609 32.3467 107.796 31.92C106.996 31.48 106.356 30.8733 105.876 30.1C105.409 29.3267 105.176 28.4333 105.176 27.42C105.176 26.3933 105.409 25.5 105.876 24.74C106.356 23.9667 106.996 23.3667 107.796 22.94C108.609 22.5133 109.529 22.3 110.556 22.3C111.463 22.3 112.289 22.4867 113.036 22.86C113.783 23.22 114.376 23.78 114.816 24.54C115.269 25.3 115.496 26.26 115.496 27.42C115.496 28.5667 115.269 29.52 114.816 30.28C114.376 31.04 113.783 31.6133 113.036 32C112.289 32.3733 111.463 32.56 110.556 32.56ZM110.776 30.88C111.483 30.88 112.109 30.7333 112.656 30.44C113.203 30.1467 113.629 29.74 113.936 29.22C114.256 28.7 114.416 28.1 114.416 27.42C114.416 26.74 114.256 26.14 113.936 25.62C113.629 25.1 113.203 24.7 112.656 24.42C112.109 24.1267 111.483 23.98 110.776 23.98C110.069 23.98 109.436 24.1267 108.876 24.42C108.329 24.7 107.896 25.1 107.576 25.62C107.269 26.14 107.116 26.74 107.116 27.42C107.116 28.1 107.269 28.7 107.576 29.22C107.896 29.74 108.329 30.1467 108.876 30.44C109.436 30.7333 110.069 30.88 110.776 30.88ZM123.605 33.12C122.538 33.12 121.711 32.8333 121.125 32.26C120.538 31.6867 120.245 30.8667 120.245 29.8V20.08H122.165V29.72C122.165 30.2933 122.305 30.7333 122.585 31.04C122.878 31.3467 123.291 31.5 123.825 31.5C124.425 31.5 124.925 31.3333 125.325 31L125.925 32.38C125.631 32.6333 125.278 32.82 124.865 32.94C124.465 33.06 124.045 33.12 123.605 33.12ZM118.445 23.98V22.4H125.205V23.98H118.445ZM133.906 22.3C134.772 22.3 135.532 22.4667 136.186 22.8C136.852 23.1333 137.372 23.64 137.746 24.32C138.119 25 138.306 25.86 138.306 26.9V33H136.386V27.12C136.386 26.0933 136.132 25.32 135.626 24.8C135.132 24.28 134.432 24.02 133.526 24.02C132.846 24.02 132.252 24.1533 131.746 24.42C131.239 24.6867 130.846 25.08 130.566 25.6C130.299 26.12 130.166 26.7667 130.166 27.54V33H128.246V18.16H130.166V25.26L129.786 24.5C130.132 23.8067 130.666 23.2667 131.386 22.88C132.106 22.4933 132.946 22.3 133.906 22.3ZM142.319 25.04C141.946 25.04 141.626 24.9133 141.359 24.66C141.092 24.3933 140.959 24.06 140.959 23.66C140.959 23.26 141.092 22.9333 141.359 22.68C141.626 22.4267 141.946 22.3 142.319 22.3C142.679 22.3 142.986 22.4267 143.239 22.68C143.506 22.9333 143.639 23.26 143.639 23.66C143.639 24.06 143.506 24.3933 143.239 24.66C142.986 24.9133 142.679 25.04 142.319 25.04ZM142.319 33.12C141.946 33.12 141.626 32.9933 141.359 32.74C141.092 32.4733 140.959 32.14 140.959 31.74C140.959 31.34 141.092 31.0133 141.359 30.76C141.626 30.5067 141.946 30.38 142.319 30.38C142.679 30.38 142.986 30.5067 143.239 30.76C143.506 31.0133 143.639 31.34 143.639 31.74C143.639 32.14 143.506 32.4733 143.239 32.74C142.986 32.9933 142.679 33.12 142.319 33.12ZM16.5231 57V43.8L17.3831 44.74H13.3631V43H18.5031V57H16.5231ZM25.8455 57.16C24.8588 57.16 23.8988 57.0067 22.9655 56.7C22.0455 56.3933 21.2921 55.98 20.7055 55.46L21.6255 53.88C22.0921 54.32 22.6988 54.68 23.4455 54.96C24.1921 55.24 24.9921 55.38 25.8455 55.38C26.8855 55.38 27.6921 55.16 28.2655 54.72C28.8521 54.2667 29.1455 53.66 29.1455 52.9C29.1455 52.1667 28.8655 51.58 28.3055 51.14C27.7588 50.6867 26.8855 50.46 25.6855 50.46H24.5655V49.06L28.7255 43.94L29.0055 44.74H21.3455V43H30.5855V44.36L26.4455 49.46L25.4055 48.84H26.0655C27.7588 48.84 29.0255 49.22 29.8655 49.98C30.7188 50.74 31.1455 51.7067 31.1455 52.88C31.1455 53.6667 30.9521 54.3867 30.5655 55.04C30.1788 55.6933 29.5921 56.2133 28.8055 56.6C28.0321 56.9733 27.0455 57.16 25.8455 57.16ZM38.7308 57.16C37.6374 57.16 36.6574 56.88 35.7908 56.32C34.9374 55.76 34.2574 54.9467 33.7508 53.88C33.2574 52.8133 33.0108 51.52 33.0108 50C33.0108 48.48 33.2574 47.1867 33.7508 46.12C34.2574 45.0533 34.9374 44.24 35.7908 43.68C36.6574 43.12 37.6374 42.84 38.7308 42.84C39.8108 42.84 40.7841 43.12 41.6508 43.68C42.5174 44.24 43.1974 45.0533 43.6908 46.12C44.1841 47.1867 44.4308 48.48 44.4308 50C44.4308 51.52 44.1841 52.8133 43.6908 53.88C43.1974 54.9467 42.5174 55.76 41.6508 56.32C40.7841 56.88 39.8108 57.16 38.7308 57.16ZM38.7308 55.38C39.4641 55.38 40.1041 55.18 40.6508 54.78C41.2108 54.38 41.6441 53.78 41.9508 52.98C42.2708 52.18 42.4308 51.1867 42.4308 50C42.4308 48.8133 42.2708 47.82 41.9508 47.02C41.6441 46.22 41.2108 45.62 40.6508 45.22C40.1041 44.82 39.4641 44.62 38.7308 44.62C37.9974 44.62 37.3508 44.82 36.7908 45.22C36.2308 45.62 35.7908 46.22 35.4708 47.02C35.1641 47.82 35.0108 48.8133 35.0108 50C35.0108 51.1867 35.1641 52.18 35.4708 52.98C35.7908 53.78 36.2308 54.38 36.7908 54.78C37.3508 55.18 37.9974 55.38 38.7308 55.38ZM57.2017 57.12C56.1217 57.12 55.1551 56.8867 54.3017 56.42C53.4617 55.9533 52.8017 55.3133 52.3217 54.5C51.8417 53.6867 51.6017 52.7533 51.6017 51.7C51.6017 50.6467 51.8417 49.7133 52.3217 48.9C52.8017 48.0867 53.4617 47.4533 54.3017 47C55.1551 46.5333 56.1217 46.3 57.2017 46.3C58.1617 46.3 59.0151 46.4933 59.7617 46.88C60.5217 47.2533 61.1084 47.8133 61.5217 48.56L60.0617 49.5C59.7151 48.98 59.2884 48.6 58.7817 48.36C58.2884 48.1067 57.7551 47.98 57.1817 47.98C56.4884 47.98 55.8684 48.1333 55.3217 48.44C54.7751 48.7467 54.3417 49.18 54.0217 49.74C53.7017 50.2867 53.5417 50.94 53.5417 51.7C53.5417 52.46 53.7017 53.12 54.0217 53.68C54.3417 54.24 54.7751 54.6733 55.3217 54.98C55.8684 55.2867 56.4884 55.44 57.1817 55.44C57.7551 55.44 58.2884 55.32 58.7817 55.08C59.2884 54.8267 59.7151 54.44 60.0617 53.92L61.5217 54.84C61.1084 55.5733 60.5217 56.14 59.7617 56.54C59.0151 56.9267 58.1617 57.12 57.2017 57.12ZM69.5308 46.3C70.3974 46.3 71.1574 46.4667 71.8108 46.8C72.4774 47.1333 72.9974 47.64 73.3708 48.32C73.7441 49 73.9308 49.86 73.9308 50.9V57H72.0108V51.12C72.0108 50.0933 71.7574 49.32 71.2508 48.8C70.7574 48.28 70.0574 48.02 69.1508 48.02C68.4708 48.02 67.8774 48.1533 67.3708 48.42C66.8641 48.6867 66.4708 49.08 66.1908 49.6C65.9241 50.12 65.7908 50.7667 65.7908 51.54V57H63.8708V42.16H65.7908V49.26L65.4108 48.5C65.7574 47.8067 66.2908 47.2667 67.0108 46.88C67.7308 46.4933 68.5708 46.3 69.5308 46.3ZM84.0641 57V54.76L83.9641 54.34V50.52C83.9641 49.7067 83.7241 49.08 83.2441 48.64C82.7774 48.1867 82.0707 47.96 81.1241 47.96C80.4974 47.96 79.8841 48.0667 79.2841 48.28C78.6841 48.48 78.1774 48.7533 77.7641 49.1L76.9641 47.66C77.5107 47.22 78.1641 46.8867 78.9241 46.66C79.6974 46.42 80.5041 46.3 81.3441 46.3C82.7974 46.3 83.9174 46.6533 84.7041 47.36C85.4907 48.0667 85.8841 49.1467 85.8841 50.6V57H84.0641ZM80.5841 57.12C79.7974 57.12 79.1041 56.9867 78.5041 56.72C77.9174 56.4533 77.4641 56.0867 77.1441 55.62C76.8241 55.14 76.6641 54.6 76.6641 54C76.6641 53.4267 76.7974 52.9067 77.0641 52.44C77.3441 51.9733 77.7907 51.6 78.4041 51.32C79.0307 51.04 79.8707 50.9 80.9241 50.9H84.2841V52.28H81.0041C80.0441 52.28 79.3974 52.44 79.0641 52.76C78.7307 53.08 78.5641 53.4667 78.5641 53.92C78.5641 54.44 78.7707 54.86 79.1841 55.18C79.5974 55.4867 80.1707 55.64 80.9041 55.64C81.6241 55.64 82.2507 55.48 82.7841 55.16C83.3307 54.84 83.7241 54.3733 83.9641 53.76L84.3441 55.08C84.0907 55.7067 83.6441 56.2067 83.0041 56.58C82.3641 56.94 81.5574 57.12 80.5841 57.12ZM89.4372 57V46.4H91.2772V49.28L91.0972 48.56C91.3905 47.8267 91.8839 47.2667 92.5772 46.88C93.2705 46.4933 94.1239 46.3 95.1372 46.3V48.16C95.0572 48.1467 94.9772 48.14 94.8972 48.14C94.8305 48.14 94.7639 48.14 94.6972 48.14C93.6705 48.14 92.8572 48.4467 92.2572 49.06C91.6572 49.6733 91.3572 50.56 91.3572 51.72V57H89.4372ZM103.302 57V54.76L103.202 54.34V50.52C103.202 49.7067 102.962 49.08 102.482 48.64C102.016 48.1867 101.309 47.96 100.362 47.96C99.7357 47.96 99.1223 48.0667 98.5223 48.28C97.9223 48.48 97.4157 48.7533 97.0023 49.1L96.2023 47.66C96.749 47.22 97.4023 46.8867 98.1623 46.66C98.9357 46.42 99.7423 46.3 100.582 46.3C102.036 46.3 103.156 46.6533 103.942 47.36C104.729 48.0667 105.122 49.1467 105.122 50.6V57H103.302ZM99.8223 57.12C99.0357 57.12 98.3423 56.9867 97.7423 56.72C97.1557 56.4533 96.7023 56.0867 96.3823 55.62C96.0623 55.14 95.9023 54.6 95.9023 54C95.9023 53.4267 96.0357 52.9067 96.3023 52.44C96.5823 51.9733 97.029 51.6 97.6423 51.32C98.269 51.04 99.109 50.9 100.162 50.9H103.522V52.28H100.242C99.2823 52.28 98.6357 52.44 98.3023 52.76C97.969 53.08 97.8023 53.4667 97.8023 53.92C97.8023 54.44 98.009 54.86 98.4223 55.18C98.8357 55.4867 99.409 55.64 100.142 55.64C100.862 55.64 101.489 55.48 102.022 55.16C102.569 54.84 102.962 54.3733 103.202 53.76L103.582 55.08C103.329 55.7067 102.882 56.2067 102.242 56.58C101.602 56.94 100.796 57.12 99.8223 57.12ZM113.295 57.12C112.215 57.12 111.249 56.8867 110.395 56.42C109.555 55.9533 108.895 55.3133 108.415 54.5C107.935 53.6867 107.695 52.7533 107.695 51.7C107.695 50.6467 107.935 49.7133 108.415 48.9C108.895 48.0867 109.555 47.4533 110.395 47C111.249 46.5333 112.215 46.3 113.295 46.3C114.255 46.3 115.109 46.4933 115.855 46.88C116.615 47.2533 117.202 47.8133 117.615 48.56L116.155 49.5C115.809 48.98 115.382 48.6 114.875 48.36C114.382 48.1067 113.849 47.98 113.275 47.98C112.582 47.98 111.962 48.1333 111.415 48.44C110.869 48.7467 110.435 49.18 110.115 49.74C109.795 50.2867 109.635 50.94 109.635 51.7C109.635 52.46 109.795 53.12 110.115 53.68C110.435 54.24 110.869 54.6733 111.415 54.98C111.962 55.2867 112.582 55.44 113.275 55.44C113.849 55.44 114.382 55.32 114.875 55.08C115.382 54.8267 115.809 54.44 116.155 53.92L117.615 54.84C117.202 55.5733 116.615 56.14 115.855 56.54C115.109 56.9267 114.255 57.12 113.295 57.12ZM123.878 57.12C122.811 57.12 121.985 56.8333 121.398 56.26C120.811 55.6867 120.518 54.8667 120.518 53.8V44.08H122.438V53.72C122.438 54.2933 122.578 54.7333 122.858 55.04C123.151 55.3467 123.565 55.5 124.098 55.5C124.698 55.5 125.198 55.3333 125.598 55L126.198 56.38C125.905 56.6333 125.551 56.82 125.138 56.94C124.738 57.06 124.318 57.12 123.878 57.12ZM118.718 47.98V46.4H125.478V47.98H118.718ZM132.888 57.12C131.754 57.12 130.754 56.8867 129.888 56.42C129.034 55.9533 128.368 55.3133 127.888 54.5C127.421 53.6867 127.188 52.7533 127.188 51.7C127.188 50.6467 127.414 49.7133 127.868 48.9C128.334 48.0867 128.968 47.4533 129.768 47C130.581 46.5333 131.494 46.3 132.508 46.3C133.534 46.3 134.441 46.5267 135.228 46.98C136.014 47.4333 136.628 48.0733 137.068 48.9C137.521 49.7133 137.748 50.6667 137.748 51.76C137.748 51.84 137.741 51.9333 137.728 52.04C137.728 52.1467 137.721 52.2467 137.708 52.34H128.688V50.96H136.708L135.928 51.44C135.941 50.76 135.801 50.1533 135.508 49.62C135.214 49.0867 134.808 48.6733 134.288 48.38C133.781 48.0733 133.188 47.92 132.508 47.92C131.841 47.92 131.248 48.0733 130.728 48.38C130.208 48.6733 129.801 49.0933 129.508 49.64C129.214 50.1733 129.068 50.7867 129.068 51.48V51.8C129.068 52.5067 129.228 53.14 129.548 53.7C129.881 54.2467 130.341 54.6733 130.928 54.98C131.514 55.2867 132.188 55.44 132.948 55.44C133.574 55.44 134.141 55.3333 134.648 55.12C135.168 54.9067 135.621 54.5867 136.008 54.16L137.068 55.4C136.588 55.96 135.988 56.3867 135.268 56.68C134.561 56.9733 133.768 57.12 132.888 57.12ZM140.414 57V46.4H142.254V49.28L142.074 48.56C142.367 47.8267 142.86 47.2667 143.554 46.88C144.247 46.4933 145.1 46.3 146.114 46.3V48.16C146.034 48.1467 145.954 48.14 145.874 48.14C145.807 48.14 145.74 48.14 145.674 48.14C144.647 48.14 143.834 48.4467 143.234 49.06C142.634 49.6733 142.334 50.56 142.334 51.72V57H140.414ZM151.637 57.12C150.757 57.12 149.917 57 149.117 56.76C148.331 56.52 147.711 56.2267 147.257 55.88L148.057 54.36C148.511 54.6667 149.071 54.9267 149.737 55.14C150.404 55.3533 151.084 55.46 151.777 55.46C152.671 55.46 153.311 55.3333 153.697 55.08C154.097 54.8267 154.297 54.4733 154.297 54.02C154.297 53.6867 154.177 53.4267 153.937 53.24C153.697 53.0533 153.377 52.9133 152.977 52.82C152.591 52.7267 152.157 52.6467 151.677 52.58C151.197 52.5 150.717 52.4067 150.237 52.3C149.757 52.18 149.317 52.02 148.917 51.82C148.517 51.6067 148.197 51.32 147.957 50.96C147.717 50.5867 147.597 50.0933 147.597 49.48C147.597 48.84 147.777 48.28 148.137 47.8C148.497 47.32 149.004 46.9533 149.657 46.7C150.324 46.4333 151.111 46.3 152.017 46.3C152.711 46.3 153.411 46.3867 154.117 46.56C154.837 46.72 155.424 46.9533 155.877 47.26L155.057 48.78C154.577 48.46 154.077 48.24 153.557 48.12C153.037 48 152.517 47.94 151.997 47.94C151.157 47.94 150.531 48.08 150.117 48.36C149.704 48.6267 149.497 48.9733 149.497 49.4C149.497 49.76 149.617 50.04 149.857 50.24C150.111 50.4267 150.431 50.5733 150.817 50.68C151.217 50.7867 151.657 50.88 152.137 50.96C152.617 51.0267 153.097 51.12 153.577 51.24C154.057 51.3467 154.491 51.5 154.877 51.7C155.277 51.9 155.597 52.18 155.837 52.54C156.091 52.9 156.217 53.38 156.217 53.98C156.217 54.62 156.031 55.1733 155.657 55.64C155.284 56.1067 154.757 56.4733 154.077 56.74C153.397 56.9933 152.584 57.12 151.637 57.12Z" fill="#8A5D33" fill-opacity="0.7"/>
</svg>
