<svg width="362" height="47" viewBox="0 0 362 47" fill="none" xmlns="http://www.w3.org/2000/svg">
<path d="M0 20C0 8.95431 8.9543 0 20 0H342C353.046 0 362 8.95431 362 20V27C362 38.0457 353.046 47 342 47H20C8.9543 47 0 38.0457 0 27V20Z" fill="#A48356" fill-opacity="0.57"/>
<path d="M20 1H342C352.493 1 361 9.50659 361 20V27C361 37.4934 352.493 46 342 46H20C9.50659 46 1 37.4934 1 27V20C1 9.50659 9.50659 1 20 1Z" stroke="#523122" stroke-opacity="0.3" stroke-width="2"/>
<path d="M28.9319 33.4341V10.3341H30.9449L46.8839 30.3981H45.8279V10.3341H48.2369V33.4341H46.2239L30.3179 13.3701H31.3739V33.4341H28.9319ZM62.3436 33.5991C60.6716 33.5991 59.1646 33.2251 57.8226 32.4771C56.5026 31.7071 55.4576 30.6621 54.6876 29.3421C53.9176 28.0001 53.5326 26.4711 53.5326 24.7551C53.5326 23.0171 53.9176 21.4881 54.6876 20.1681C55.4576 18.8481 56.5026 17.8141 57.8226 17.0661C59.1426 16.3181 60.6496 15.9441 62.3436 15.9441C64.0596 15.9441 65.5776 16.3181 66.8976 17.0661C68.2396 17.8141 69.2846 18.8481 70.0326 20.1681C70.8026 21.4881 71.1876 23.0171 71.1876 24.7551C71.1876 26.4711 70.8026 28.0001 70.0326 29.3421C69.2846 30.6621 68.2396 31.7071 66.8976 32.4771C65.5556 33.2251 64.0376 33.5991 62.3436 33.5991ZM62.3436 31.5201C63.5976 31.5201 64.7086 31.2451 65.6766 30.6951C66.6446 30.1231 67.4036 29.3311 67.9536 28.3191C68.5256 27.2851 68.8116 26.0971 68.8116 24.7551C68.8116 23.3911 68.5256 22.2031 67.9536 21.1911C67.4036 20.1791 66.6446 19.3981 65.6766 18.8481C64.7086 18.2761 63.6086 17.9901 62.3766 17.9901C61.1446 17.9901 60.0446 18.2761 59.0766 18.8481C58.1086 19.3981 57.3386 20.1791 56.7666 21.1911C56.1946 22.2031 55.9086 23.3911 55.9086 24.7551C55.9086 26.0971 56.1946 27.2851 56.7666 28.3191C57.3386 29.3311 58.1086 30.1231 59.0766 30.6951C60.0446 31.2451 61.1336 31.5201 62.3436 31.5201ZM95.4648 33.4341V29.6061L95.3658 28.9791V22.5771C95.3658 21.1031 94.9478 19.9701 94.1118 19.1781C93.2978 18.3861 92.0768 17.9901 90.4488 17.9901C89.3268 17.9901 88.2598 18.1771 87.2478 18.5511C86.2358 18.9251 85.3778 19.4201 84.6738 20.0361L83.6178 18.2871C84.4978 17.5391 85.5538 16.9671 86.7858 16.5711C88.0178 16.1531 89.3158 15.9441 90.6798 15.9441C92.9238 15.9441 94.6508 16.5051 95.8608 17.6271C97.0928 18.7271 97.7088 20.4101 97.7088 22.6761V33.4341H95.4648ZM89.4918 33.5991C88.1938 33.5991 87.0608 33.3901 86.0928 32.9721C85.1468 32.5321 84.4208 31.9381 83.9148 31.1901C83.4088 30.4201 83.1558 29.5401 83.1558 28.5501C83.1558 27.6481 83.3648 26.8341 83.7828 26.1081C84.2228 25.3601 84.9268 24.7661 85.8948 24.3261C86.8848 23.8641 88.2048 23.6331 89.8548 23.6331H95.8278V25.3821H89.9208C88.2488 25.3821 87.0828 25.6791 86.4228 26.2731C85.7848 26.8671 85.4658 27.6041 85.4658 28.4841C85.4658 29.4741 85.8508 30.2661 86.6208 30.8601C87.3908 31.4541 88.4688 31.7511 89.8548 31.7511C91.1748 31.7511 92.3078 31.4541 93.2538 30.8601C94.2218 30.2441 94.9258 29.3641 95.3658 28.2201L95.8938 29.8371C95.4538 30.9811 94.6838 31.8941 93.5838 32.5761C92.5058 33.2581 91.1418 33.5991 89.4918 33.5991ZM111.267 33.5991C109.551 33.5991 108.011 33.2251 106.647 32.4771C105.305 31.7071 104.249 30.6621 103.479 29.3421C102.709 28.0001 102.324 26.4711 102.324 24.7551C102.324 23.0171 102.709 21.4881 103.479 20.1681C104.249 18.8481 105.305 17.8141 106.647 17.0661C108.011 16.3181 109.551 15.9441 111.267 15.9441C112.741 15.9441 114.072 16.2301 115.26 16.8021C116.448 17.3741 117.383 18.2321 118.065 19.3761L116.316 20.5641C115.722 19.6841 114.985 19.0351 114.105 18.6171C113.225 18.1991 112.268 17.9901 111.234 17.9901C110.002 17.9901 108.891 18.2761 107.901 18.8481C106.911 19.3981 106.13 20.1791 105.558 21.1911C104.986 22.2031 104.7 23.3911 104.7 24.7551C104.7 26.1191 104.986 27.3071 105.558 28.3191C106.13 29.3311 106.911 30.1231 107.901 30.6951C108.891 31.2451 110.002 31.5201 111.234 31.5201C112.268 31.5201 113.225 31.3111 114.105 30.8931C114.985 30.4751 115.722 29.8371 116.316 28.9791L118.065 30.1671C117.383 31.2891 116.448 32.1471 115.26 32.7411C114.072 33.3131 112.741 33.5991 111.267 33.5991ZM128.339 33.5991C126.711 33.5991 125.457 33.1591 124.577 32.2791C123.697 31.3991 123.257 30.1561 123.257 28.5501V12.2811H125.6V28.4181C125.6 29.4301 125.853 30.2111 126.359 30.7611C126.887 31.3111 127.635 31.5861 128.603 31.5861C129.637 31.5861 130.495 31.2891 131.177 30.6951L132.002 32.3781C131.54 32.7961 130.979 33.1041 130.319 33.3021C129.681 33.5001 129.021 33.5991 128.339 33.5991ZM120.155 18.0561V16.1091H130.88V18.0561H120.155ZM136.267 33.4341V16.1091H138.61V33.4341H136.267ZM137.455 12.2811C136.971 12.2811 136.564 12.1161 136.234 11.7861C135.904 11.4561 135.739 11.0601 135.739 10.5981C135.739 10.1361 135.904 9.75108 136.234 9.44308C136.564 9.11308 136.971 8.94808 137.455 8.94808C137.939 8.94808 138.346 9.10208 138.676 9.41008C139.006 9.71808 139.171 10.1031 139.171 10.5651C139.171 11.0491 139.006 11.4561 138.676 11.7861C138.368 12.1161 137.961 12.2811 137.455 12.2811ZM149.584 33.4341L141.895 16.1091H144.337L151.399 32.1801H150.244L157.405 16.1091H159.715L151.993 33.4341H149.584ZM169.891 33.5991C168.087 33.5991 166.503 33.2251 165.139 32.4771C163.775 31.7071 162.708 30.6621 161.938 29.3421C161.168 28.0001 160.783 26.4711 160.783 24.7551C160.783 23.0391 161.146 21.5211 161.872 20.2011C162.62 18.8811 163.632 17.8471 164.908 17.0991C166.206 16.3291 167.658 15.9441 169.264 15.9441C170.892 15.9441 172.333 16.3181 173.587 17.0661C174.863 17.7921 175.864 18.8261 176.59 20.1681C177.316 21.4881 177.679 23.0171 177.679 24.7551C177.679 24.8651 177.668 24.9861 177.646 25.1181C177.646 25.2281 177.646 25.3491 177.646 25.4811H162.565V23.7321H176.392L175.468 24.4251C175.468 23.1711 175.193 22.0601 174.643 21.0921C174.115 20.1021 173.389 19.3321 172.465 18.7821C171.541 18.2321 170.474 17.9571 169.264 17.9571C168.076 17.9571 167.009 18.2321 166.063 18.7821C165.117 19.3321 164.38 20.1021 163.852 21.0921C163.324 22.0821 163.06 23.2151 163.06 24.4911V24.8541C163.06 26.1741 163.346 27.3401 163.918 28.3521C164.512 29.3421 165.326 30.1231 166.36 30.6951C167.416 31.2451 168.615 31.5201 169.957 31.5201C171.013 31.5201 171.992 31.3331 172.894 30.9591C173.818 30.5851 174.61 30.0131 175.27 29.2431L176.59 30.7611C175.82 31.6851 174.852 32.3891 173.686 32.8731C172.542 33.3571 171.277 33.5991 169.891 33.5991ZM196.562 33.5991C194.934 33.5991 193.68 33.1591 192.8 32.2791C191.92 31.3991 191.48 30.1561 191.48 28.5501V12.2811H193.823V28.4181C193.823 29.4301 194.076 30.2111 194.582 30.7611C195.11 31.3111 195.858 31.5861 196.826 31.5861C197.86 31.5861 198.718 31.2891 199.4 30.6951L200.225 32.3781C199.763 32.7961 199.202 33.1041 198.542 33.3021C197.904 33.5001 197.244 33.5991 196.562 33.5991ZM188.378 18.0561V16.1091H199.103V18.0561H188.378ZM210.94 33.5991C209.268 33.5991 207.761 33.2251 206.419 32.4771C205.099 31.7071 204.054 30.6621 203.284 29.3421C202.514 28.0001 202.129 26.4711 202.129 24.7551C202.129 23.0171 202.514 21.4881 203.284 20.1681C204.054 18.8481 205.099 17.8141 206.419 17.0661C207.739 16.3181 209.246 15.9441 210.94 15.9441C212.656 15.9441 214.174 16.3181 215.494 17.0661C216.836 17.8141 217.881 18.8481 218.629 20.1681C219.399 21.4881 219.784 23.0171 219.784 24.7551C219.784 26.4711 219.399 28.0001 218.629 29.3421C217.881 30.6621 216.836 31.7071 215.494 32.4771C214.152 33.2251 212.634 33.5991 210.94 33.5991ZM210.94 31.5201C212.194 31.5201 213.305 31.2451 214.273 30.6951C215.241 30.1231 216 29.3311 216.55 28.3191C217.122 27.2851 217.408 26.0971 217.408 24.7551C217.408 23.3911 217.122 22.2031 216.55 21.1911C216 20.1791 215.241 19.3981 214.273 18.8481C213.305 18.2761 212.205 17.9901 210.973 17.9901C209.741 17.9901 208.641 18.2761 207.673 18.8481C206.705 19.3981 205.935 20.1791 205.363 21.1911C204.791 22.2031 204.505 23.3911 204.505 24.7551C204.505 26.0971 204.791 27.2851 205.363 28.3191C205.935 29.3311 206.705 30.1231 207.673 30.6951C208.641 31.2451 209.73 31.5201 210.94 31.5201ZM231.465 33.5991C229.815 33.5991 228.33 33.2251 227.01 32.4771C225.712 31.7291 224.689 30.6951 223.941 29.3751C223.193 28.0331 222.819 26.4931 222.819 24.7551C222.819 22.9951 223.193 21.4551 223.941 20.1351C224.689 18.8151 225.712 17.7921 227.01 17.0661C228.33 16.3181 229.815 15.9441 231.465 15.9441C232.983 15.9441 234.336 16.2851 235.524 16.9671C236.734 17.6491 237.691 18.6501 238.395 19.9701C239.121 21.2681 239.484 22.8631 239.484 24.7551C239.484 26.6251 239.132 28.2201 238.428 29.5401C237.724 30.8601 236.767 31.8721 235.557 32.5761C234.369 33.2581 233.005 33.5991 231.465 33.5991ZM231.63 31.5201C232.862 31.5201 233.962 31.2451 234.93 30.6951C235.92 30.1231 236.69 29.3311 237.24 28.3191C237.812 27.2851 238.098 26.0971 238.098 24.7551C238.098 23.3911 237.812 22.2031 237.24 21.1911C236.69 20.1791 235.92 19.3981 234.93 18.8481C233.962 18.2761 232.862 17.9901 231.63 17.9901C230.42 17.9901 229.331 18.2761 228.363 18.8481C227.395 19.3981 226.625 20.1791 226.053 21.1911C225.481 22.2031 225.195 23.3911 225.195 24.7551C225.195 26.0971 225.481 27.2851 226.053 28.3191C226.625 29.3311 227.395 30.1231 228.363 30.6951C229.331 31.2451 230.42 31.5201 231.63 31.5201ZM238.164 33.4341V28.2201L238.395 24.7221L238.065 21.2241V8.94808H240.408V33.4341H238.164ZM253.995 33.5991C252.323 33.5991 250.816 33.2251 249.474 32.4771C248.154 31.7071 247.109 30.6621 246.339 29.3421C245.569 28.0001 245.184 26.4711 245.184 24.7551C245.184 23.0171 245.569 21.4881 246.339 20.1681C247.109 18.8481 248.154 17.8141 249.474 17.0661C250.794 16.3181 252.301 15.9441 253.995 15.9441C255.711 15.9441 257.229 16.3181 258.549 17.0661C259.891 17.8141 260.936 18.8481 261.684 20.1681C262.454 21.4881 262.839 23.0171 262.839 24.7551C262.839 26.4711 262.454 28.0001 261.684 29.3421C260.936 30.6621 259.891 31.7071 258.549 32.4771C257.207 33.2251 255.689 33.5991 253.995 33.5991ZM253.995 31.5201C255.249 31.5201 256.36 31.2451 257.328 30.6951C258.296 30.1231 259.055 29.3311 259.605 28.3191C260.177 27.2851 260.463 26.0971 260.463 24.7551C260.463 23.3911 260.177 22.2031 259.605 21.1911C259.055 20.1791 258.296 19.3981 257.328 18.8481C256.36 18.2761 255.26 17.9901 254.028 17.9901C252.796 17.9901 251.696 18.2761 250.728 18.8481C249.76 19.3981 248.99 20.1791 248.418 21.1911C247.846 22.2031 247.56 23.3911 247.56 24.7551C247.56 26.0971 247.846 27.2851 248.418 28.3191C248.99 29.3311 249.76 30.1231 250.728 30.6951C251.696 31.2451 252.785 31.5201 253.995 31.5201ZM272.275 33.5991C270.845 33.5991 269.492 33.4011 268.216 33.0051C266.94 32.5871 265.939 32.0701 265.213 31.4541L266.269 29.6061C266.973 30.1341 267.875 30.5961 268.975 30.9921C270.075 31.3661 271.23 31.5531 272.44 31.5531C274.09 31.5531 275.278 31.3001 276.004 30.7941C276.73 30.2661 277.093 29.5731 277.093 28.7151C277.093 28.0771 276.884 27.5821 276.466 27.2301C276.07 26.8561 275.542 26.5811 274.882 26.4051C274.222 26.2071 273.485 26.0421 272.671 25.9101C271.857 25.7781 271.043 25.6241 270.229 25.4481C269.437 25.2721 268.711 25.0191 268.051 24.6891C267.391 24.3371 266.852 23.8641 266.434 23.2701C266.038 22.6761 265.84 21.8841 265.84 20.8941C265.84 19.9481 266.104 19.1011 266.632 18.3531C267.16 17.6051 267.93 17.0221 268.942 16.6041C269.976 16.1641 271.23 15.9441 272.704 15.9441C273.826 15.9441 274.948 16.0981 276.07 16.4061C277.192 16.6921 278.116 17.0771 278.842 17.5611L277.819 19.4421C277.049 18.9141 276.224 18.5401 275.344 18.3201C274.464 18.0781 273.584 17.9571 272.704 17.9571C271.142 17.9571 269.987 18.2321 269.239 18.7821C268.513 19.3101 268.15 19.9921 268.15 20.8281C268.15 21.4881 268.348 22.0051 268.744 22.3791C269.162 22.7531 269.701 23.0501 270.361 23.2701C271.043 23.4681 271.78 23.6331 272.572 23.7651C273.386 23.8971 274.189 24.0621 274.981 24.2601C275.795 24.4361 276.532 24.6891 277.192 25.0191C277.874 25.3271 278.413 25.7781 278.809 26.3721C279.227 26.9441 279.436 27.7031 279.436 28.6491C279.436 29.6611 279.15 30.5411 278.578 31.2891C278.028 32.0151 277.214 32.5871 276.136 33.0051C275.08 33.4011 273.793 33.5991 272.275 33.5991ZM292.504 40.0011C291.69 40.0011 290.909 39.8691 290.161 39.6051C289.435 39.3411 288.808 38.9451 288.28 38.4171L289.369 36.6681C289.809 37.0861 290.282 37.4051 290.788 37.6251C291.316 37.8671 291.899 37.9881 292.537 37.9881C293.307 37.9881 293.967 37.7681 294.517 37.3281C295.089 36.9101 295.628 36.1621 296.134 35.0841L297.256 32.5431L297.52 32.1801L304.648 16.1091H306.958L298.279 35.5131C297.795 36.6351 297.256 37.5261 296.662 38.1861C296.09 38.8461 295.463 39.3081 294.781 39.5721C294.099 39.8581 293.34 40.0011 292.504 40.0011ZM297.124 33.9291L289.138 16.1091H291.58L298.642 32.0151L297.124 33.9291ZM317.134 33.5991C315.33 33.5991 313.746 33.2251 312.382 32.4771C311.018 31.7071 309.951 30.6621 309.181 29.3421C308.411 28.0001 308.026 26.4711 308.026 24.7551C308.026 23.0391 308.389 21.5211 309.115 20.2011C309.863 18.8811 310.875 17.8471 312.151 17.0991C313.449 16.3291 314.901 15.9441 316.507 15.9441C318.135 15.9441 319.576 16.3181 320.83 17.0661C322.106 17.7921 323.107 18.8261 323.833 20.1681C324.559 21.4881 324.922 23.0171 324.922 24.7551C324.922 24.8651 324.911 24.9861 324.889 25.1181C324.889 25.2281 324.889 25.3491 324.889 25.4811H309.808V23.7321H323.635L322.711 24.4251C322.711 23.1711 322.436 22.0601 321.886 21.0921C321.358 20.1021 320.632 19.3321 319.708 18.7821C318.784 18.2321 317.717 17.9571 316.507 17.9571C315.319 17.9571 314.252 18.2321 313.306 18.7821C312.36 19.3321 311.623 20.1021 311.095 21.0921C310.567 22.0821 310.303 23.2151 310.303 24.4911V24.8541C310.303 26.1741 310.589 27.3401 311.161 28.3521C311.755 29.3421 312.569 30.1231 313.603 30.6951C314.659 31.2451 315.858 31.5201 317.2 31.5201C318.256 31.5201 319.235 31.3331 320.137 30.9591C321.061 30.5851 321.853 30.0131 322.513 29.2431L323.833 30.7611C323.063 31.6851 322.095 32.3891 320.929 32.8731C319.785 33.3571 318.52 33.5991 317.134 33.5991ZM335.169 33.5991C333.541 33.5991 332.287 33.1591 331.407 32.2791C330.527 31.3991 330.087 30.1561 330.087 28.5501V12.2811H332.43V28.4181C332.43 29.4301 332.683 30.2111 333.189 30.7611C333.717 31.3111 334.465 31.5861 335.433 31.5861C336.467 31.5861 337.325 31.2891 338.007 30.6951L338.832 32.3781C338.37 32.7961 337.809 33.1041 337.149 33.3021C336.511 33.5001 335.851 33.5991 335.169 33.5991ZM326.985 18.0561V16.1091H337.71V18.0561H326.985Z" fill="white" fill-opacity="0.6"/>
</svg>
